<?xml version="1.0" encoding="UTF-8"?>
<!-- Created with Inkscape (http://www.inkscape.org/) -->
<svg id="SVGRoot" preserveAspectRatio="none" version="1.1" viewBox=".3 0 299.26 156.24" xmlns="http://www.w3.org/2000/svg" xmlns:xlink="http://www.w3.org/1999/xlink">
 <defs>
  <linearGradient id="linearGradient150628">
   <stop stop-color="#3b1f83" offset="0"/>
   <stop stop-color="#161fac" stop-opacity=".80785" offset="1"/>
  </linearGradient>
  <linearGradient id="linearGradient107623" x1="31.056" x2="1051.7" y1="1394.5" y2="1425.6" gradientTransform="matrix(.26487 .00032431 .0015613 .26501 -3.8669 -3.3836)" gradientUnits="userSpaceOnUse" xlink:href="#linearGradient150628"/>
  <linearGradient id="linearGradient8782" x1="-.11912" x2="299.19" y1="86.202" y2="86.202" gradientUnits="userSpaceOnUse" xlink:href="#linearGradient150628"/>
 </defs>
 <g transform="translate(1.7711 -351.21)">
  <path d="m298.56 400.91c-34.835 5.215-40.808 15.518-66.971 37.488-16.932 14.219-39.027 28.189-55.678 27.872-27.727-0.52711-35.489-13.046-48.214-33.218-27.608-43.764-50.108-146.04-128.36-23.643l-1.0816 98.471 299.37-0.87671z" fill="#e6d7fe" stroke="#0000b0" stroke-width=".23171" style="mix-blend-mode:normal;paint-order:markers stroke fill"/>
 </g>
 <g transform="translate(1.7711 -351.21)" style="mix-blend-mode:darken">
  <g stroke="#eeac2a" stroke-width=".26458">
   <circle cx="158.9" cy="518.85" r=".046975"/>
   <circle cx="158.9" cy="518.85" r=".046975"/>
   <circle cx="89.83" cy="475.89" r=".046975"/>
   <circle cx="89.83" cy="475.89" r=".046975"/>
   <circle cx="174.06" cy="45.43" r=".046975"/>
   <circle cx="174.06" cy="45.43" r=".046975"/>
   <circle cx="157.48" cy="33.993" r=".046975"/>
   <circle cx="157.48" cy="33.993" r=".046975"/>
  </g>
  <path d="m-1.7485 507.88s0.10096-45.504 0.46836-57.226l0.29737-9.4873 5.2988-5.1413c15.988-15.512 26.307-29.241 37.014-36.285 13.811-9.0867 25.034-10.014 35.938-2.9705 5.5229 3.5678 10.12 8.3193 20.666 21.359 8.1901 10.127 12.995 15.548 16.816 18.975 1.6721 1.4994 5.2257 4.8075 7.8967 7.3514 2.671 2.5439 6.465 5.8343 8.4311 7.3119 18.981 14.266 40.994 17.405 74.961 10.691 16.212-3.2048 31.49-7.5791 73.613-21.077 8.7633-2.8082 19.332-4.9738 19.4-4.9054 0.0679 0.0684 0.0406 15.902 0.0391 34.367l-1.4668 36.162-148.55 0.28126z" fill="url(#linearGradient107623)" stroke="#0000b0" stroke-width=".33045" style="mix-blend-mode:overlay;paint-order:markers stroke fill"/>
 </g>
 <g transform="translate(1.7711 -351.21)" style="mix-blend-mode:normal">
  <path d="m298.83-6.0531-297.51 4.3906-1.6722 139.42c-10.046 5.9753 40.635-8.3385 64.298-36.815 9.5411-9.9765 18.941-23.397 27.101-35.005 11.275-11.034 13.798-8.8175 24.078-15.704 34.094 11.238 54.7 35.85 78.02 55.132 5.0195 4.084 14.256 8.3118 19.539 11.522 6.6517 4.0426 10.772 4.5913 17.848 6.3639h5.8e-4c22.856 5.7259 47.106 1.0404 67.48-4.9153z" fill="#ddd5fe" stroke-width="0" style="mix-blend-mode:darken"/>
  <path d="m-0.9828 441.17c74.12-106.55 84.972-40.607 120.08-4.9194 11.234 9.2288 18.124 19.212 28.169 23.877 27.241 12.648 61.938 5.583 149.82-14.431" fill="none" stroke="#eeac2a" style="mix-blend-mode:overlay"/>
 </g>
 <g transform="translate(1.7711 -351.21)" style="mix-blend-mode:darken">
  <g fill="url(#linearGradient8782)" style="mix-blend-mode:overlay">
   <path d="m301.54 178.23c-16.643 0.94053-25.902-0.53268-35.734-1.8016-11.351-1.4649-22.607-5.9695-32.869-10.357-15.742-6.731-27.667-15.647-44.506-30.742-10.609-9.5106-19.696-19.598-28.502-30.799-12.874-16.374-18.751-40.301-44.652-46.421-2.5133-0.59388-5.7977-0.70533-8.4481-0.70533-23.485 0-30.481 27.323-47.841 37.952-12.368 7.5729-23.806 15.81-39.581 18.064-5.6965 0.81379-19.43 0.19756-19.43 0.19756l-0.092473-117.77 299.31-1.3084z" fill="url(#linearGradient8782)" stroke-width="0" style="mix-blend-mode:darken"/>
  </g>
 </g>
 <g transform="translate(1.7711 -351.21)" style="mix-blend-mode:normal">
  <path d="m-0.50586 119.5c9.9984 3.5448 28.708 0.62519 42.622-7.0562 8.0385-4.438 14.2-11.628 16.868-17.078 8.8607-18.098 18.593-35.24 41.462-42.017 1.8057-0.53514 5.7674-1.3468 8.8004-1.2847 9.5305 0.91755 20.265 6.2428 25.624 12.354 10.34 12.061 16.805 28.585 25.867 40.11 8.8066 11.201 18.108 22.144 28.844 31.49 13.734 11.956 28.57 23.105 44.98 30.997 9.4227 4.5312 18.86 6.564 30.029 9.0623 11.252 2.5167 26.296 2.6157 36.946 2.1618" fill="none" stroke="#eeac2a" stroke-width="1.0001" style="mix-blend-mode:overlay"/>
 </g>
</svg>
