<?xml version="1.0" encoding="UTF-8" standalone="no"?>
<!-- Created with Inkscape (http://www.inkscape.org/) -->

<svg
   id="SVGRoot"
   version="1.1"
   preserveAspectRatio="none"
   viewBox="2.5 2 290 510"
   sodipodi:docname="newUpperLower.svg"
   inkscape:version="1.1.2 (0a00cf5339, 2022-02-04)"
   xmlns:inkscape="http://www.inkscape.org/namespaces/inkscape"
   xmlns:sodipodi="http://sodipodi.sourceforge.net/DTD/sodipodi-0.dtd"
   xmlns:xlink="http://www.w3.org/1999/xlink"
   xmlns="http://www.w3.org/2000/svg"
   xmlns:svg="http://www.w3.org/2000/svg">
  <sodipodi:namedview
     id="namedview54"
     pagecolor="#ffffff"
     bordercolor="#666666"
     borderopacity="1.0"
     inkscape:pageshadow="2"
     inkscape:pageopacity="0.0"
     inkscape:pagecheckerboard="0"
     showgrid="false"
     fit-margin-top="0"
     fit-margin-left="0"
     fit-margin-right="0"
     fit-margin-bottom="0"
     inkscape:zoom="1.1039267"
     inkscape:cx="373.2132"
     inkscape:cy="517.69743"
     inkscape:window-width="1920"
     inkscape:window-height="1016"
     inkscape:window-x="0"
     inkscape:window-y="27"
     inkscape:window-maximized="0"
     inkscape:current-layer="layer5" />
  <defs
     id="defs9">
    <linearGradient
       id="linearGradient150628">
      <stop
         stop-color="#3b1f83"
         offset="0"
         id="stop2" />
      <stop
         stop-color="#161fac"
         stop-opacity=".80785"
         offset="1"
         id="stop4" />
    </linearGradient>
    <linearGradient
       id="linearGradient107623"
       x1="31.056"
       x2="1051.7"
       y1="1394.5"
       y2="1425.6"
       gradientTransform="matrix(0.26487,3.2431e-4,0.0015613,0.26501,-3.8669,-3.3836)"
       gradientUnits="userSpaceOnUse"
       xlink:href="#linearGradient150628" />
    <linearGradient
       id="linearGradient8782"
       x1="-0.11912"
       x2="299.19"
       y1="86.202003"
       y2="86.202003"
       gradientUnits="userSpaceOnUse"
       xlink:href="#linearGradient150628" />
    <linearGradient
       inkscape:collect="always"
       xlink:href="#linearGradient150628"
       id="linearGradient871"
       gradientUnits="userSpaceOnUse"
       x1="-0.11912"
       y1="86.202003"
       x2="299.19"
       y2="86.202003" />
  </defs>
  <g
     inkscape:groupmode="layer"
     id="layer1"
     inkscape:label="bottom"
     style="display:inline">
    <g
       transform="translate(2.2132098,6.0531)"
       id="g13">
      <path
         d="m 298.70411,389.19267 c -34.835,5.215 -40.95211,27.23533 -67.11511,49.20533 -16.932,14.219 -39.027,28.189 -55.678,27.872 -27.727,-0.52711 -35.489,-13.046 -48.214,-33.218 -27.608,-43.764 -50.108,-146.04 -128.36,-23.643 l -1.0816,98.471 299.37,-0.87671 z"
         fill="#e6d7fe"
         stroke="#0000b0"
         stroke-width="0.23171"
         style="mix-blend-mode:normal;paint-order:markers stroke fill"
         id="path11"
         sodipodi:nodetypes="cccccccc" />
    </g>
  </g>
  <g
     inkscape:groupmode="layer"
     id="layer2"
     inkscape:label="upper purple" />
  <g
     inkscape:groupmode="layer"
     id="layer3"
     inkscape:label="upper blue"
     style="display:inline" />
  <g
     inkscape:groupmode="layer"
     id="layer5"
     inkscape:label="upper"
     style="display:inline">
    <g
       transform="translate(2.2132098,6.0531)"
       style="display:inline;mix-blend-mode:darken"
       id="g35">
      <g
         stroke="#eeac2a"
         stroke-width="0.26458"
         id="g31">
        <circle
           cx="158.89999"
           cy="518.84998"
           r="0.046975002"
           id="circle15" />
        <circle
           cx="158.89999"
           cy="518.84998"
           r="0.046975002"
           id="circle17" />
        <circle
           cx="89.830002"
           cy="475.89001"
           r="0.046975002"
           id="circle19" />
        <circle
           cx="89.830002"
           cy="475.89001"
           r="0.046975002"
           id="circle21" />
        <circle
           cx="174.06"
           cy="45.43"
           r="0.046975002"
           id="circle23" />
        <circle
           cx="174.06"
           cy="45.43"
           r="0.046975002"
           id="circle25" />
        <circle
           cx="157.48"
           cy="33.993"
           r="0.046975002"
           id="circle27" />
        <circle
           cx="157.48"
           cy="33.993"
           r="0.046975002"
           id="circle29" />
      </g>
      <path
         d="m -1.7485,507.88 c 0,0 0.10096,-45.504 0.46836,-57.226 l 0.29737,-9.4873 5.2988,-5.1413 c 15.988,-15.512 26.307,-29.241 37.014,-36.285 13.811,-9.0867 25.034,-10.014 35.938,-2.9705 5.5229,3.5678 10.12,8.3193 20.666,21.359 8.1901,10.127 12.995,15.548 16.816,18.975 1.6721,1.4994 5.2257,4.8075 7.8967,7.3514 2.671,2.5439 6.465,5.8343 8.4311,7.3119 18.981,14.266 40.994,17.405 74.961,10.691 16.212,-3.2048 31.49,-7.5791 73.613,-21.077 8.7633,-2.8082 19.332,-4.9738 19.4,-4.9054 0.0679,0.0684 0.0406,15.902 0.0391,34.367 l -1.4668,36.162 -148.55,0.28126 z"
         fill="url(#linearGradient107623)"
         stroke="#0000b0"
         stroke-width="0.33045"
         style="mix-blend-mode:overlay;fill:url(#linearGradient107623);paint-order:markers stroke fill"
         id="path33" />
    </g>
    <g
       transform="translate(2.2132098,6.0531)"
       style="display:inline;mix-blend-mode:normal"
       id="g41">
      <path
         d="M 298.83,-6.0531 1.32,-1.6625 -0.3522,155.39985 c -6.851648,4.07532 24.623088,-6.80223 35.634869,-13.02099 C 45.612474,136.54524 55.494249,129.24336 63.004362,120.06 75.86725,104.33126 82.8868,77.5455 91.0468,65.9375 c 11.275,-11.034 13.798,-8.8175 24.078,-15.704 34.094,11.238 54.7,35.85 78.02,55.132 5.0195,4.084 14.256,8.3118 19.539,11.522 6.6517,4.0426 10.772,4.5913 17.848,6.3639 h 5.8e-4 c 22.856,5.7259 47.106,1.0404 67.48,-4.9153 z"
         fill="#ddd5fe"
         stroke-width="0"
         style="mix-blend-mode:darken"
         id="path37"
         sodipodi:nodetypes="cccaacccccccc"
         sodipodi:insensitive="true" />
      <path
         d="M -0.81505143,430.40794 C 77.855323,327.6018 85.679113,401.95339 119.0972,436.2506 c 11.234,9.2288 18.124,19.212 28.169,23.877 27.241,12.648 62.81922,9.81145 150.70122,-10.20255"
         fill="none"
         stroke="#eeac2a"
         style="mix-blend-mode:overlay"
         id="path39"
         sodipodi:nodetypes="cccc" />
    </g>
    <g
       transform="translate(2.2132098,6.0531)"
       style="mix-blend-mode:darken"
       id="g47">
      <g
         fill="url(#linearGradient8782)"
         style="mix-blend-mode:overlay;fill:url(#linearGradient8782)"
         id="g45">
        <path
           d="m 301.54,178.23 c -16.643,0.94053 -25.902,-0.53268 -35.734,-1.8016 -11.351,-1.4649 -22.607,-5.9695 -32.869,-10.357 -15.742,-6.731 -27.667,-15.647 -44.506,-30.742 -10.609,-9.5106 -19.696,-19.598 -28.502,-30.799 -12.874,-16.374 -18.751,-40.301 -44.652,-46.421 -2.5133,-0.59388 -5.7977,-0.70533 -8.4481,-0.70533 -23.485,0 -30.481,27.323 -47.841,37.952 -12.368,7.5729 -23.806,15.81 -39.581,18.064 -5.6965,0.81379 -19.43,0.19756 -19.43,0.19756 l -0.092473,-117.77 299.310003,-1.3084 z"
           fill="url(#linearGradient8782)"
           stroke-width="0"
           style="mix-blend-mode:darken;fill:url(#linearGradient871)"
           id="path43" />
      </g>
    </g>
    <g
       transform="translate(2.2132098,6.0531)"
       style="display:inline;mix-blend-mode:normal"
       id="g51">
      <path
         d="M 0.1557415,130.41649 C 17.818182,129.14535 34.411998,122.97708 48.60724,113.41389 54.772467,109.26044 59.04027,102.73864 63.355827,96.685773 68.735818,89.139965 72.307501,79.369152 77.077665,72.505969 82.534491,64.654835 88.242444,55.6526 100.44614,52.036156 c 17.63678,-7.244935 36.01341,10.686055 47.85932,30.770415 16.51562,30.957349 27.59569,42.118539 41.27608,53.211529 13.734,11.956 28.57,23.105 44.98,30.997 9.4227,4.5312 18.86,6.564 30.029,9.0623 11.252,2.5167 26.296,2.6157 36.946,2.1618"
         fill="none"
         stroke="#eeac2a"
         stroke-width="1.0001"
         style="mix-blend-mode:overlay"
         id="path49"
         sodipodi:nodetypes="caascccccc" />
    </g>
  </g>
  <g
     inkscape:groupmode="layer"
     id="layer4"
     inkscape:label="yellow strip"
     style="display:inline" />
</svg>
